<svg xmlns="http://www.w3.org/2000/svg" xml:space="preserve" width="2000" height="1500" data-id="lg_Z8bX8BH60Pewg39kay" data-version="1" viewBox="0 0 2000 1500">
  <circle cx="50" cy="50" r="40" fill="#3498db" />
<path stroke="transparent" d="M0 0h2000v1500H0z"/><g data-padding="20"><path fill="#2c106a" d="M466.542 951.575a62.288 62.288 0 1 0 0 124.576 62.288 62.288 0 1 0 0-124.576m0-56.085a12.213 12.213 0 1 0 0 24.426 12.213 12.213 0 1 0 0-24.426m106.157-106.158a12.213 12.213 0 1 0 0 24.427 12.213 12.213 0 1 0 0-24.427m0 212.317a12.213 12.213 0 1 0 0 24.427 12.213 12.213 0 1 0 0-24.427m0-156.234a62.288 62.288 0 1 0 0 124.576 62.288 62.288 0 1 0 0-124.576M466.542 739.258a62.288 62.288 0 1 0 0 124.575 62.288 62.288 0 1 0 0-124.575m0-56.087a12.213 12.213 0 1 0 0 24.426 12.213 12.213 0 1 0 0-24.426m106.157-106.158a12.213 12.213 0 1 0 0 24.427 12.213 12.213 0 1 0 0-24.427M466.542 526.94a62.288 62.288 0 1 0 0 124.575 62.288 62.288 0 1 0 0-124.575m106.157 106.157a62.288 62.288 0 1 0 0 124.576 62.288 62.288 0 1 0 0-124.576m106.16 318.479a62.288 62.288 0 1 0 0 124.576 62.288 62.288 0 1 0 0-124.576m0-56.085a12.213 12.213 0 1 0 0 24.426 12.213 12.213 0 1 0 0-24.426m106.157-106.158a12.213 12.213 0 1 0 0 24.427 12.213 12.213 0 1 0 0-24.427m0 212.317a12.213 12.213 0 1 0 0 24.427 12.213 12.213 0 1 0 0-24.427m0-156.234a62.288 62.288 0 1 0 0 124.576 62.288 62.288 0 1 0 0-124.576M678.86 739.258a62.288 62.288 0 1 0 0 124.575 62.288 62.288 0 1 0 0-124.575m0-56.087a12.213 12.213 0 1 0 0 24.426 12.213 12.213 0 1 0 0-24.426m106.157-106.158a12.213 12.213 0 1 0 0 24.427 12.213 12.213 0 1 0 0-24.427M678.86 526.94a62.288 62.288 0 1 0 0 124.575 62.288 62.288 0 1 0 0-124.575m212.317 424.636a62.288 62.288 0 1 0 0 124.576 62.288 62.288 0 1 0 0-124.576m0-56.085a12.213 12.213 0 1 0 0 24.426 12.213 12.213 0 1 0 0-24.426m0-156.232a62.288 62.288 0 1 0 0 124.575 62.288 62.288 0 1 0 0-124.575m0-56.087a12.213 12.213 0 1 0 0 24.426 12.213 12.213 0 1 0 0-24.426m0-156.232a62.288 62.288 0 1 0 0 124.575 62.288 62.288 0 1 0 0-124.575m-106.16 106.157a62.288 62.288 0 1 0 0 124.576 62.288 62.288 0 1 0 0-124.576"/><path fill="#2c106a" d="M572.304 632.037a62.288 62.288 0 1 0 0 124.576 62.288 62.288 0 1 0 0-124.576m0-56.083a12.213 12.213 0 1 0 0 24.427 12.213 12.213 0 1 0 0-24.427m106.157-106.16a12.213 12.213 0 1 0 0 24.427 12.213 12.213 0 1 0 0-24.426m0 212.317a12.213 12.213 0 1 0 0 24.426 12.213 12.213 0 1 0 0-24.426m0-156.232a62.288 62.288 0 1 0 0 124.575 62.288 62.288 0 1 0 0-124.575M572.304 419.72a62.288 62.288 0 1 0 0 124.576 62.288 62.288 0 1 0 0-124.576m0-56.085a12.213 12.213 0 1 0 0 24.427 12.213 12.213 0 1 0 0-24.427m106.157-106.158a12.213 12.213 0 1 0 0 24.427 12.213 12.213 0 1 0 0-24.427m-106.157-50.074a62.288 62.288 0 1 0 0 124.576 62.288 62.288 0 1 0 0-124.576M678.461 313.56a62.288 62.288 0 1 0 0 124.576 62.288 62.288 0 1 0 0-124.576m106.16 318.477a62.288 62.288 0 1 0 0 124.576 62.288 62.288 0 1 0 0-124.576m0-56.083a12.213 12.213 0 1 0 0 24.427 12.213 12.213 0 1 0 0-24.427m106.16-106.16a12.213 12.213 0 1 0 0 24.427 12.213 12.213 0 1 0 0-24.426m0 212.317a12.213 12.213 0 1 0 0 24.426 12.213 12.213 0 1 0 0-24.426m0-156.232a62.288 62.288 0 1 0 0 124.575 62.288 62.288 0 1 0 0-124.575M784.62 419.72a62.288 62.288 0 1 0 0 124.576 62.288 62.288 0 1 0 0-124.576m0-56.085a12.213 12.213 0 1 0 0 24.427 12.213 12.213 0 1 0 0-24.427m106.16-106.158a12.213 12.213 0 1 0 0 24.427 12.213 12.213 0 1 0 0-24.427m-106.16-50.074a62.288 62.288 0 1 0 0 124.576 62.288 62.288 0 1 0 0-124.576m212.32 424.634a62.288 62.288 0 1 0 0 124.576 62.288 62.288 0 1 0 0-124.576m0-56.083a12.213 12.213 0 1 0 0 24.427 12.213 12.213 0 1 0 0-24.427m0-156.234a62.288 62.288 0 1 0 0 124.576 62.288 62.288 0 1 0 0-124.576m0-56.085a12.213 12.213 0 1 0 0 24.427 12.213 12.213 0 1 0 0-24.427m0-156.232a62.288 62.288 0 1 0 0 124.576 62.288 62.288 0 1 0 0-124.576M890.78 313.56a62.288 62.288 0 1 0 0 124.576 62.288 62.288 0 1 0 0-124.576m.824 638.213a62.288 62.288 0 1 0 0 124.576 62.288 62.288 0 1 0 0-124.576m0-56.082a12.213 12.213 0 1 0 0 24.426 12.213 12.213 0 1 0 0-24.426m106.16-106.16a12.213 12.213 0 1 0 0 24.427 12.213 12.213 0 1 0 0-24.427m0 212.317a12.213 12.213 0 1 0 0 24.427 12.213 12.213 0 1 0 0-24.427m0-156.232a62.288 62.288 0 1 0 0 124.576 62.288 62.288 0 1 0 0-124.576m-106.16-106.16a62.288 62.288 0 1 0 0 124.576 62.288 62.288 0 1 0 0-124.576"/><path fill="#2c106a" d="M891.605 683.373a12.213 12.213 0 1 0 0 24.427 12.213 12.213 0 1 0 0-24.427m106.16-106.16a12.213 12.213 0 1 0 0 24.427 12.213 12.213 0 1 0 0-24.426m-106.16-50.075a62.288 62.288 0 1 0 0 124.576 62.288 62.288 0 1 0 0-124.576m106.16 106.16a62.288 62.288 0 1 0 0 124.576 62.288 62.288 0 1 0 0-124.576m106.16 318.474a62.288 62.288 0 1 0 0 124.576 62.288 62.288 0 1 0 0-124.576m0-56.082a12.213 12.213 0 1 0 0 24.426 12.213 12.213 0 1 0 0-24.426m106.157-106.16a12.213 12.213 0 1 0 0 24.427 12.213 12.213 0 1 0 0-24.427m0 212.317a12.213 12.213 0 1 0 0 24.427 12.213 12.213 0 1 0 0-24.427m0-156.232a62.288 62.288 0 1 0 0 124.576 62.288 62.288 0 1 0 0-124.576m-106.158-106.16a62.288 62.288 0 1 0 0 124.576 62.288 62.288 0 1 0 0-124.576m0-56.083a12.213 12.213 0 1 0 0 24.427 12.213 12.213 0 1 0 0-24.427m106.158-106.16a12.213 12.213 0 1 0 0 24.427 12.213 12.213 0 1 0 0-24.426m-106.158-50.075a62.288 62.288 0 1 0 0 124.576 62.288 62.288 0 1 0 0-124.576m212.317 424.634a62.288 62.288 0 1 0 0 124.576 62.288 62.288 0 1 0 0-124.576m0-56.082a12.213 12.213 0 1 0 0 24.426 12.213 12.213 0 1 0 0-24.426m0-156.235a62.288 62.288 0 1 0 0 124.576 62.288 62.288 0 1 0 0-124.576m0-56.083a12.213 12.213 0 1 0 0 24.427 12.213 12.213 0 1 0 0-24.427m0-156.234a62.288 62.288 0 1 0 0 124.576 62.288 62.288 0 1 0 0-124.576m-106.16 106.16a62.288 62.288 0 1 0 0 124.576 62.288 62.288 0 1 0 0-124.576m-103.808 534.287a62.506 62.506 0 1 0 0 125.011 62.506 62.506 0 1 0 0-125.011m0-56.493a12.256 12.256 0 1 0 0 24.512 12.256 12.256 0 1 0 0-24.512"/><path fill="#2c106a" d="M1213.015 1004.353a12.256 12.256 0 1 0 0 24.512 12.256 12.256 0 1 0 0-24.512m0 213.482a12.256 12.256 0 1 0 0 24.512 12.256 12.256 0 1 0 0-24.512m0-156.992a62.506 62.506 0 1 0 0 125.012 62.506 62.506 0 1 0 0-125.012m-106.742-106.74a62.506 62.506 0 1 0 0 125.011 62.506 62.506 0 1 0 0-125.011m0-56.495a12.256 12.256 0 1 0 0 24.512 12.256 12.256 0 1 0 0-24.512m106.742-106.74a12.256 12.256 0 1 0 0 24.512 12.256 12.256 0 1 0 0-24.512m-106.742-50.25a62.506 62.506 0 1 0 0 125.011 62.506 62.506 0 1 0 0-125.011m106.742 106.74a62.506 62.506 0 1 0 0 125.012 62.506 62.506 0 1 0 0-125.012m106.743 320.228a62.506 62.506 0 1 0 0 125.011 62.506 62.506 0 1 0 0-125.011m0-56.493a12.256 12.256 0 1 0 0 24.512 12.256 12.256 0 1 0 0-24.512m106.742-106.74a12.256 12.256 0 1 0 0 24.512 12.256 12.256 0 1 0 0-24.512m0 213.482a12.256 12.256 0 1 0 0 24.512 12.256 12.256 0 1 0 0-24.512m0-156.992a62.506 62.506 0 1 0 0 125.012 62.506 62.506 0 1 0 0-125.012m-106.742-106.74a62.506 62.506 0 1 0 0 125.011 62.506 62.506 0 1 0 0-125.011m0-56.495a12.256 12.256 0 1 0 0 24.512 12.256 12.256 0 1 0 0-24.512m106.742-106.74a12.256 12.256 0 1 0 0 24.512 12.256 12.256 0 1 0 0-24.512m-106.742-50.25a62.506 62.506 0 1 0 0 125.011 62.506 62.506 0 1 0 0-125.011m213.483 426.968a62.506 62.506 0 1 0 0 125.011 62.506 62.506 0 1 0 0-125.011m0-56.493a12.256 12.256 0 1 0 0 24.512 12.256 12.256 0 1 0 0-24.512m0-156.99a62.506 62.506 0 1 0 0 125.011 62.506 62.506 0 1 0 0-125.011m0-56.495a12.256 12.256 0 1 0 0 24.512 12.256 12.256 0 1 0 0-24.512m0-156.99a62.506 62.506 0 1 0 0 125.011 62.506 62.506 0 1 0 0-125.011m-106.74 106.74a62.506 62.506 0 1 0 0 125.012 62.506 62.506 0 1 0 0-125.012"/><g transform="translate(-339.135 -38.246)scale(2.1352)"><filter id="a" width="140%" height="140%" x="-20%" y="-20%"><feGaussianBlur in="SourceAlpha"/><feOffset result="oBlur"/><feFlood flood-color="#f75cff" flood-opacity="1"/><feComposite in2="oBlur" operator="in"/><feMerge><feMergeNode/><feMergeNode in="SourceGraphic"/></feMerge></filter><g filter="url(#a)"><rect width="248.358" height="201.14" x="503.913" y="269.15" fill="none" rx="0" ry="0"/><path fill="#fff" d="M633.512 340.24q0 11.21-6.05 20.29-6.06 9.08-17.63 13.35l27.24 51.26h-44.15l-21.71-44.68h-14.6v44.68h-39.34V302.68h74.94q13.17 0 22.52 5.07 9.34 5.07 14.06 13.71 4.72 8.63 4.72 18.78m-40.05 1.6q0-4.81-3.21-8.01-3.2-3.21-7.83-3.21h-25.81v22.61h25.81q4.63 0 7.83-3.29 3.21-3.3 3.21-8.1m104.49-12.82q18.87 0 31.96 7.39 13.08 7.39 13.08 22.87h-32.93q0-5.16-4.63-7.3-3.2-1.78-8.01-1.78-12.82 0-12.82 6.06 0 3.38 4.45 4.8 4.45 1.43 14.6 3.03 12.46 1.78 20.83 4.18 8.36 2.4 14.59 8.54 6.23 6.15 6.23 17.18 0 17.98-13.44 25.63-13.44 7.66-35.15 7.66-12.46 0-23.5-3.47-11.03-3.47-17.98-10.77-6.94-7.3-6.94-18.51h32.93v.71q.18 6.05 5.08 8.45 4.89 2.41 10.41 2.41 14.77 0 14.77-6.95 0-3.56-4.63-5.16-4.62-1.6-15.13-3.38-12.63-2.14-20.73-4.63t-14.15-8.45q-6.06-5.97-6.06-16.65 0-17.26 13.09-24.56 13.08-7.3 34.08-7.3"/></g></g><path fill="transparent" stroke="transparent" stroke-width="2.215" d="M382.136 187.5h1235.728v1125H382.136z"/></g></svg>